G04 EAGLE Gerber RS-274X export*
G75*
%MOMM*%
%FSLAX34Y34*%
%LPD*%
%INTop Copper*%
%IPPOS*%
%AMOC8*
5,1,8,0,0,1.08239X$1,22.5*%
G01*
%ADD10R,1.020000X1.905000*%
%ADD11P,1.632244X8X22.500000*%
%ADD12C,1.016000*%
%ADD13C,0.508000*%


D10*
X112700Y329480D03*
X138100Y365020D03*
X163500Y329480D03*
X188900Y365020D03*
X214300Y329480D03*
X239700Y365020D03*
X265100Y329480D03*
X290500Y365020D03*
X315900Y329480D03*
X341300Y365020D03*
X366700Y329480D03*
X392100Y365020D03*
X417500Y329480D03*
X442900Y365020D03*
X468300Y329480D03*
X493700Y365020D03*
X519100Y329480D03*
X544500Y365020D03*
X569900Y329480D03*
X595300Y365020D03*
D11*
X277800Y198250D03*
X303200Y198250D03*
X328600Y198250D03*
X354000Y198250D03*
X379400Y198250D03*
X404800Y198250D03*
X430200Y198250D03*
D12*
X277800Y198410D02*
X211590Y198410D01*
X112700Y297300D01*
X112700Y329480D01*
X277800Y198410D02*
X277800Y198250D01*
D13*
X265100Y306400D02*
X265100Y329480D01*
X354000Y217500D02*
X354000Y198250D01*
X354000Y217500D02*
X265100Y306400D01*
X468300Y298300D02*
X468300Y329480D01*
X404800Y234800D02*
X404800Y198250D01*
X404800Y234800D02*
X468300Y298300D01*
D12*
X286260Y225870D02*
X226510Y225870D01*
X138100Y314280D01*
X138100Y365020D01*
X286260Y225870D02*
X303200Y208930D01*
X303200Y198250D01*
D13*
X188900Y311100D02*
X188900Y365020D01*
X250000Y250000D02*
X289840Y250000D01*
X250000Y250000D02*
X188900Y311100D01*
X328600Y211240D02*
X328600Y198250D01*
X328600Y211240D02*
X289840Y250000D01*
X290500Y309500D02*
X290500Y365020D01*
X379400Y220600D02*
X379400Y198250D01*
X379400Y220600D02*
X290500Y309500D01*
X430200Y198250D02*
X493700Y261750D01*
X493700Y365020D01*
M02*
