G04 EAGLE Gerber RS-274X export*
G75*
%MOMM*%
%FSLAX34Y34*%
%LPD*%
%IN*%
%IPPOS*%
%AMOC8*
5,1,8,0,0,1.08239X$1,22.5*%
G01*
%ADD10C,0.254000*%


D10*
X0Y0D02*
X708000Y0D01*
X708000Y396500D01*
X0Y396500D01*
X0Y0D01*
X91000Y365976D02*
X90932Y364931D01*
X90795Y363892D01*
X90590Y362865D01*
X90319Y361853D01*
X89983Y360861D01*
X89582Y359893D01*
X89118Y358954D01*
X88595Y358046D01*
X88013Y357175D01*
X87375Y356344D01*
X86684Y355557D01*
X85943Y354816D01*
X85156Y354125D01*
X84325Y353488D01*
X83454Y352906D01*
X82546Y352382D01*
X81607Y351918D01*
X80639Y351517D01*
X79647Y351181D01*
X78635Y350910D01*
X77608Y350705D01*
X76569Y350569D01*
X75524Y350500D01*
X74476Y350500D01*
X73431Y350569D01*
X72392Y350705D01*
X71365Y350910D01*
X70353Y351181D01*
X69361Y351517D01*
X68393Y351918D01*
X67454Y352382D01*
X66546Y352906D01*
X65675Y353488D01*
X64844Y354125D01*
X64057Y354816D01*
X63316Y355557D01*
X62625Y356344D01*
X61988Y357175D01*
X61406Y358046D01*
X60882Y358954D01*
X60418Y359893D01*
X60017Y360861D01*
X59681Y361853D01*
X59410Y362865D01*
X59205Y363892D01*
X59069Y364931D01*
X59000Y365976D01*
X59000Y367024D01*
X59069Y368069D01*
X59205Y369108D01*
X59410Y370135D01*
X59681Y371147D01*
X60017Y372139D01*
X60418Y373107D01*
X60882Y374046D01*
X61406Y374954D01*
X61988Y375825D01*
X62625Y376656D01*
X63316Y377443D01*
X64057Y378184D01*
X64844Y378875D01*
X65675Y379513D01*
X66546Y380095D01*
X67454Y380618D01*
X68393Y381082D01*
X69361Y381483D01*
X70353Y381819D01*
X71365Y382090D01*
X72392Y382295D01*
X73431Y382432D01*
X74476Y382500D01*
X75524Y382500D01*
X76569Y382432D01*
X77608Y382295D01*
X78635Y382090D01*
X79647Y381819D01*
X80639Y381483D01*
X81607Y381082D01*
X82546Y380618D01*
X83454Y380095D01*
X84325Y379513D01*
X85156Y378875D01*
X85943Y378184D01*
X86684Y377443D01*
X87375Y376656D01*
X88013Y375825D01*
X88595Y374954D01*
X89118Y374046D01*
X89582Y373107D01*
X89983Y372139D01*
X90319Y371147D01*
X90590Y370135D01*
X90795Y369108D01*
X90932Y368069D01*
X91000Y367024D01*
X91000Y365976D01*
X91000Y29476D02*
X90932Y28431D01*
X90795Y27392D01*
X90590Y26365D01*
X90319Y25353D01*
X89983Y24361D01*
X89582Y23393D01*
X89118Y22454D01*
X88595Y21546D01*
X88013Y20675D01*
X87375Y19844D01*
X86684Y19057D01*
X85943Y18316D01*
X85156Y17625D01*
X84325Y16988D01*
X83454Y16406D01*
X82546Y15882D01*
X81607Y15418D01*
X80639Y15017D01*
X79647Y14681D01*
X78635Y14410D01*
X77608Y14205D01*
X76569Y14069D01*
X75524Y14000D01*
X74476Y14000D01*
X73431Y14069D01*
X72392Y14205D01*
X71365Y14410D01*
X70353Y14681D01*
X69361Y15017D01*
X68393Y15418D01*
X67454Y15882D01*
X66546Y16406D01*
X65675Y16988D01*
X64844Y17625D01*
X64057Y18316D01*
X63316Y19057D01*
X62625Y19844D01*
X61988Y20675D01*
X61406Y21546D01*
X60882Y22454D01*
X60418Y23393D01*
X60017Y24361D01*
X59681Y25353D01*
X59410Y26365D01*
X59205Y27392D01*
X59069Y28431D01*
X59000Y29476D01*
X59000Y30524D01*
X59069Y31569D01*
X59205Y32608D01*
X59410Y33635D01*
X59681Y34647D01*
X60017Y35639D01*
X60418Y36607D01*
X60882Y37546D01*
X61406Y38454D01*
X61988Y39325D01*
X62625Y40156D01*
X63316Y40943D01*
X64057Y41684D01*
X64844Y42375D01*
X65675Y43013D01*
X66546Y43595D01*
X67454Y44118D01*
X68393Y44582D01*
X69361Y44983D01*
X70353Y45319D01*
X71365Y45590D01*
X72392Y45795D01*
X73431Y45932D01*
X74476Y46000D01*
X75524Y46000D01*
X76569Y45932D01*
X77608Y45795D01*
X78635Y45590D01*
X79647Y45319D01*
X80639Y44983D01*
X81607Y44582D01*
X82546Y44118D01*
X83454Y43595D01*
X84325Y43013D01*
X85156Y42375D01*
X85943Y41684D01*
X86684Y40943D01*
X87375Y40156D01*
X88013Y39325D01*
X88595Y38454D01*
X89118Y37546D01*
X89582Y36607D01*
X89983Y35639D01*
X90319Y34647D01*
X90590Y33635D01*
X90795Y32608D01*
X90932Y31569D01*
X91000Y30524D01*
X91000Y29476D01*
X649800Y365976D02*
X649732Y364931D01*
X649595Y363892D01*
X649390Y362865D01*
X649119Y361853D01*
X648783Y360861D01*
X648382Y359893D01*
X647918Y358954D01*
X647395Y358046D01*
X646813Y357175D01*
X646175Y356344D01*
X645484Y355557D01*
X644743Y354816D01*
X643956Y354125D01*
X643125Y353488D01*
X642254Y352906D01*
X641346Y352382D01*
X640407Y351918D01*
X639439Y351517D01*
X638447Y351181D01*
X637435Y350910D01*
X636408Y350705D01*
X635369Y350569D01*
X634324Y350500D01*
X633276Y350500D01*
X632231Y350569D01*
X631192Y350705D01*
X630165Y350910D01*
X629153Y351181D01*
X628161Y351517D01*
X627193Y351918D01*
X626254Y352382D01*
X625346Y352906D01*
X624475Y353488D01*
X623644Y354125D01*
X622857Y354816D01*
X622116Y355557D01*
X621425Y356344D01*
X620788Y357175D01*
X620206Y358046D01*
X619682Y358954D01*
X619218Y359893D01*
X618817Y360861D01*
X618481Y361853D01*
X618210Y362865D01*
X618005Y363892D01*
X617869Y364931D01*
X617800Y365976D01*
X617800Y367024D01*
X617869Y368069D01*
X618005Y369108D01*
X618210Y370135D01*
X618481Y371147D01*
X618817Y372139D01*
X619218Y373107D01*
X619682Y374046D01*
X620206Y374954D01*
X620788Y375825D01*
X621425Y376656D01*
X622116Y377443D01*
X622857Y378184D01*
X623644Y378875D01*
X624475Y379513D01*
X625346Y380095D01*
X626254Y380618D01*
X627193Y381082D01*
X628161Y381483D01*
X629153Y381819D01*
X630165Y382090D01*
X631192Y382295D01*
X632231Y382432D01*
X633276Y382500D01*
X634324Y382500D01*
X635369Y382432D01*
X636408Y382295D01*
X637435Y382090D01*
X638447Y381819D01*
X639439Y381483D01*
X640407Y381082D01*
X641346Y380618D01*
X642254Y380095D01*
X643125Y379513D01*
X643956Y378875D01*
X644743Y378184D01*
X645484Y377443D01*
X646175Y376656D01*
X646813Y375825D01*
X647395Y374954D01*
X647918Y374046D01*
X648382Y373107D01*
X648783Y372139D01*
X649119Y371147D01*
X649390Y370135D01*
X649595Y369108D01*
X649732Y368069D01*
X649800Y367024D01*
X649800Y365976D01*
X649800Y29476D02*
X649732Y28431D01*
X649595Y27392D01*
X649390Y26365D01*
X649119Y25353D01*
X648783Y24361D01*
X648382Y23393D01*
X647918Y22454D01*
X647395Y21546D01*
X646813Y20675D01*
X646175Y19844D01*
X645484Y19057D01*
X644743Y18316D01*
X643956Y17625D01*
X643125Y16988D01*
X642254Y16406D01*
X641346Y15882D01*
X640407Y15418D01*
X639439Y15017D01*
X638447Y14681D01*
X637435Y14410D01*
X636408Y14205D01*
X635369Y14069D01*
X634324Y14000D01*
X633276Y14000D01*
X632231Y14069D01*
X631192Y14205D01*
X630165Y14410D01*
X629153Y14681D01*
X628161Y15017D01*
X627193Y15418D01*
X626254Y15882D01*
X625346Y16406D01*
X624475Y16988D01*
X623644Y17625D01*
X622857Y18316D01*
X622116Y19057D01*
X621425Y19844D01*
X620788Y20675D01*
X620206Y21546D01*
X619682Y22454D01*
X619218Y23393D01*
X618817Y24361D01*
X618481Y25353D01*
X618210Y26365D01*
X618005Y27392D01*
X617869Y28431D01*
X617800Y29476D01*
X617800Y30524D01*
X617869Y31569D01*
X618005Y32608D01*
X618210Y33635D01*
X618481Y34647D01*
X618817Y35639D01*
X619218Y36607D01*
X619682Y37546D01*
X620206Y38454D01*
X620788Y39325D01*
X621425Y40156D01*
X622116Y40943D01*
X622857Y41684D01*
X623644Y42375D01*
X624475Y43013D01*
X625346Y43595D01*
X626254Y44118D01*
X627193Y44582D01*
X628161Y44983D01*
X629153Y45319D01*
X630165Y45590D01*
X631192Y45795D01*
X632231Y45932D01*
X633276Y46000D01*
X634324Y46000D01*
X635369Y45932D01*
X636408Y45795D01*
X637435Y45590D01*
X638447Y45319D01*
X639439Y44983D01*
X640407Y44582D01*
X641346Y44118D01*
X642254Y43595D01*
X643125Y43013D01*
X643956Y42375D01*
X644743Y41684D01*
X645484Y40943D01*
X646175Y40156D01*
X646813Y39325D01*
X647395Y38454D01*
X647918Y37546D01*
X648382Y36607D01*
X648783Y35639D01*
X649119Y34647D01*
X649390Y33635D01*
X649595Y32608D01*
X649732Y31569D01*
X649800Y30524D01*
X649800Y29476D01*
M02*
